<?xml version="1.0" standalone="no"?>
<!DOCTYPE svg PUBLIC "-//W3C//DTD SVG 1.1//EN" "http://www.w3.org/Graphics/SVG/1.1/DTD/svg11.dtd" >
<svg xmlns="http://www.w3.org/2000/svg" xmlns:xlink="http://www.w3.org/1999/xlink" version="1.1">
<metadata></metadata>
<defs>
<font id="bellerosepro-lightlight" horiz-adv-x="65" >
<font-face units-per-em="2048" ascent="1620" descent="-428" />
<missing-glyph horiz-adv-x="442" />
<glyph horiz-adv-x="0" />
<glyph horiz-adv-x="682" />
<glyph />
<glyph />
<glyph unicode="&#xd;" horiz-adv-x="681" />
<glyph unicode=" "  horiz-adv-x="442" />
<glyph unicode="&#x09;" horiz-adv-x="442" />
<glyph unicode="&#xa0;" horiz-adv-x="442" />
<glyph unicode="!" horiz-adv-x="251" d="M66 0v121h120v-121h-120zM66 244v1222h116v-1222h-116z" />
<glyph unicode="&#x22;" horiz-adv-x="454" d="M66 1137v329h118v-329h-118zM270 1137v329h119v-329h-119z" />
<glyph unicode="#" horiz-adv-x="1099" d="M66 442l20 113h193l96 283h-195l21 110h211l129 383h114l-129 -383h219l129 383h117l-131 -383h174l-20 -110h-191l-96 -283h195l-21 -113h-211l-139 -403h-113l133 403h-217l-135 -403h-115l138 403h-176zM391 555h219l97 283h-220z" />
<glyph unicode="$" horiz-adv-x="980" d="M66 309l112 31q20 -100 98 -167t183 -77v643l-62 15q-125 29 -201 130t-75 238q0 138 97 244t241 119v127h59v-125q203 -16 299 -184l-102 -60q-63 113 -197 123v-520l78 -21q137 -37 228 -155t91 -272q-1 -156 -115 -278t-282 -138v-215h-59v210q-145 7 -251 99 t-142 233zM240 1112q0 -98 59 -163t160 -89v506q-95 -12 -157 -84t-62 -170zM518 98q121 16 200 104t79 202q1 116 -63 198t-169 109l-47 12v-625z" />
<glyph unicode="%" horiz-adv-x="1746" d="M66 1082q0 144 106 246t257 104q151 0 256 -104t105 -248q0 -146 -104 -246t-254 -101q-150 1 -258 103t-108 246zM162 1078q0 -108 80 -182t188 -73q108 0 186 74t78 181t-78 183t-186 76q-108 1 -188 -75t-80 -184zM383 0l891 1466h129l-891 -1466h-129zM958 328 q0 146 104 246q104 102 256 102q151 0 257 -102t106 -247q0 -144 -105 -247t-256 -103q-151 1 -256 103q-106 102 -106 248zM1050 326q0 -106 80 -183q80 -75 190 -75t186 74t77 184q-1 108 -77 182t-186 74t-190 -75t-80 -181z" />
<glyph unicode="&#x26;" horiz-adv-x="1200" d="M66 475q0 162 92 287t243 186l-20 30q-45 69 -51 85t-14 40t-9 66q0 109 76 184q77 75 185 75t183 -76q75 -74 74 -183q0 -63 -16 -107t-59 -77t-73 -47t-102 -45l375 -600q59 78 99 162l71 -97q-37 -96 -104 -170l119 -188h-142l-63 106q-168 -135 -370 -135 q-202 1 -348 147t-146 357zM184 475q0 -165 111 -275t271 -110t298 115l-401 643q-125 -50 -202 -148t-77 -225zM426 1181q0 -45 23 -83l63 -103q139 46 166 85q27 38 28 93t-39 95q-39 40 -99 41t-101 -41t-41 -87z" />
<glyph unicode="'" horiz-adv-x="249" d="M66 1137v329h118v-329h-118z" />
<glyph unicode="(" horiz-adv-x="436" d="M66 670q0 434 227 919l78 -39q-197 -460 -197 -880q0 -180 51 -378t144 -345l-88 -60q-99 145 -157 367t-58 416z" />
<glyph unicode=")" horiz-adv-x="436" d="M66 1550l79 39q225 -481 226 -919q-1 -195 -57 -416t-156 -367l-88 60q90 145 141 343t51 380q0 428 -196 880z" />
<glyph unicode="*" horiz-adv-x="514" d="M66 1171l143 80l-143 80l38 62l129 -101l-10 164h70l-10 -164l127 99l39 -60l-146 -80l146 -80l-39 -59l-127 98l10 -161l-70 -2l10 165l-129 -100z" />
<glyph unicode="+" horiz-adv-x="919" d="M66 670v118h335v336h119v-336h334v-118h-334v-336h-119v336h-335z" />
<glyph unicode="," horiz-adv-x="249" d="M66 0v119h118v-232l-65 113h-53z" />
<glyph unicode="-" horiz-adv-x="534" d="M66 381v119h403v-119h-403z" />
<glyph unicode="." horiz-adv-x="249" d="M66 0v119h118v-119h-118z" />
<glyph unicode="/" horiz-adv-x="954" d="M66 -29l731 1526h92l-731 -1526h-92z" />
<glyph unicode="0" horiz-adv-x="1589" d="M33 735q0 319 220 541q221 221 540 221t541 -221q222 -220 222 -540t-222 -542t-541 -222t-539 222t-221 541zM152 734q0 -270 185 -456q185 -188 455 -188t458 188t188 456t-188 456t-457 188t-455 -187t-186 -457z" />
<glyph unicode="1" horiz-adv-x="249" d="M66 0v1466h118v-1466h-118z" />
<glyph unicode="2" horiz-adv-x="839" d="M66 0l555 961q35 59 34 131q1 108 -73 182t-183 74q-158 0 -229 -142l-102 58q47 92 137 147t194 55q155 0 265 -109t110 -265q0 -104 -47 -185l-457 -788h473v-119h-677z" />
<glyph unicode="3" horiz-adv-x="997" d="M66 213l100 61q100 -170 301 -170q143 0 245 102t101 244q0 144 -101 245t-245 102q-96 0 -174 -45l328 596h-494v118h692l-303 -553q176 -18 296 -151q120 -132 120 -318t-136 -322t-329 -136q-125 0 -230 60t-171 167z" />
<glyph unicode="4" horiz-adv-x="1112" d="M66 459l765 1007v-1022h216v-118h-216v-326h-118v326h-561zM203 444h510v670z" />
<glyph unicode="5" horiz-adv-x="995" d="M66 195l92 69q109 -160 299 -160q150 0 252 102t102 251q0 150 -102 252t-263 102t-264 -129l-94 53v731h680v-118h-561v-490q121 72 250 72q197 0 335 -138t138 -335t-138 -334t-335 -137q-248 0 -391 209z" />
<glyph unicode="6" horiz-adv-x="970" d="M66 406q0 111 53 206l463 854h137l-361 -659q61 18 127 18q174 0 297 -122q123 -121 123 -297t-123 -298t-297 -122t-297 122q-122 122 -122 298zM184 406q0 -126 88 -214t213 -88t213 87t88 215t-88 214q-88 87 -213 87t-213 -87t-88 -214z" />
<glyph unicode="7" horiz-adv-x="823" d="M66 1346v118h692l-512 -1464h-125l469 1346h-524z" />
<glyph unicode="8" horiz-adv-x="997" d="M66 418q0 118 60 220t163 159q-158 113 -158 303q0 152 108 260q109 108 259 106q150 0 258 -108t108 -258q0 -193 -157 -303q104 -57 164 -159t61 -220q0 -182 -126 -307t-308 -125t-308 126q-125 126 -124 306zM184 419q0 -132 90 -223q90 -92 224 -92t224 90 q91 90 91 224q0 133 -91 224t-224 91q-134 0 -224 -91t-90 -223zM250 1102q0 -104 72 -177t177 -73t176 71t71 179t-70 176q-68 70 -176 70t-179 -71t-71 -175z" />
<glyph unicode="9" horiz-adv-x="970" d="M66 1046q0 176 122 298t297 122q174 0 297 -122t123 -297q0 -113 -53 -209l-457 -838h-135l352 645q-51 -20 -127 -20q-176 0 -298 123q-121 123 -121 298zM184 1046q0 -126 87 -214t214 -89q127 0 214 88q87 89 87 215t-88 214t-213 88t-213 -88t-88 -214z" />
<glyph unicode=":" horiz-adv-x="249" d="M66 0v119h118v-119h-118zM66 764v119h118v-119h-118z" />
<glyph unicode=";" horiz-adv-x="249" d="M66 0v119h118v-232l-65 113h-53zM66 764v119h118v-119h-118z" />
<glyph unicode="&#x3c;" horiz-adv-x="1189" d="M66 723l1058 553v-107l-870 -446l870 -447v-106z" />
<glyph unicode="=" horiz-adv-x="940" d="M66 528v119h808v-119h-808zM66 815v119h808v-119h-808z" />
<glyph unicode="&#x3e;" horiz-adv-x="1191" d="M66 170v106l870 447l-870 446v107l1060 -553z" />
<glyph unicode="?" horiz-adv-x="854" d="M66 1239q43 103 138 165t208 62q158 0 268 -110t108 -257q0 -146 -89 -255t-224 -129v-471h-119v585h56q110 0 184 76q74 75 74 183t-75 184t-167 76t-158 -42t-96 -112zM356 0v121h121v-121h-121z" />
<glyph unicode="@" horiz-adv-x="1478" d="M66 561q0 441 181 673t611 232q299 0 427 -132t128 -424t-102 -466q-114 -194 -410 -194q-45 0 -100 43q-19 -7 -55 -25t-78 -18q-248 0 -248 276q0 57 16 176q23 127 44 196q56 176 189 221q77 26 199 26q203 0 203 -47q0 -30 -12 -78l-107 -608q-4 -20 -4 -33 q0 -35 33 -35q324 0 324 557q1 258 -99 373t-354 115q-452 0 -590 -335q-45 -110 -61 -229t-17 -270q0 -311 156 -441t473 -130q176 0 338 45q8 -6 8 -42t-4 -48q-14 -51 -307 -52q-190 0 -328 31q-307 69 -402 314q-52 134 -52 329zM562 498q0 -90 38 -128q39 -36 160 -36 q47 0 53 26l100 566q16 92 17 100q0 33 -49 33h-68q-89 0 -144 -70t-83 -254q-2 -15 -13 -81t-11 -156z" />
<glyph unicode="A" horiz-adv-x="1013" d="M33 414l71 118h80v582q0 158 113 270t271 113q158 0 269 -113q112 -113 111 -270v-1114h-119v414h-526v-414h-119v414h-151zM303 532h526v582q0 113 -74 189q-75 75 -186 75t-189 -78t-77 -186v-582z" />
<glyph unicode="B" horiz-adv-x="1077" d="M33 881l71 120h107v465h391q121 0 206 -86t85 -206q0 -154 -121 -236q121 -68 189 -184q67 -114 67 -250q0 -212 -146 -358t-354 -146h-317v881h-178zM330 119h198h3q156 0 267 111q112 112 111 270q1 158 -111 270q-111 111 -267 111h-3h-198v-762zM330 999h272h3 q70 0 119 51q50 52 50 124t-50 122t-122 52h-272v-349z" />
<glyph unicode="C" horiz-adv-x="1476" d="M49 735q0 319 220 541q219 221 537 221h3q186 0 348 -82t268 -231l-94 -68q-195 262 -522 262q-269 0 -455 -187t-186 -457t185 -456q185 -187 456 -188q329 0 522 264l96 -69q-106 -150 -269 -232t-349 -82q-319 1 -539 223t-221 541z" />
<glyph unicode="D" horiz-adv-x="1169" d="M33 1348l71 118h283q305 0 519 -214t214 -519t-214 -519t-519 -214h-178v1348h-176zM328 119h59q258 0 436 178t178 435t-179 436t-435 180h-59v-1229z" />
<glyph unicode="E" horiz-adv-x="950" d="M33 881l71 118h107v467h674v-118h-555v-349h352v-118h-352v-762h555v-119h-674v881h-178z" />
<glyph unicode="F" horiz-adv-x="950" d="M33 881l71 120h107v465h674v-118h-555v-347h352v-120h-352v-881h-119v881h-178z" />
<glyph unicode="G" horiz-adv-x="1617" d="M49 735q0 319 220 541q221 221 540 221q186 0 348 -82t268 -231l-94 -68q-195 262 -522 262q-269 0 -455 -187t-186 -457t185 -456q185 -187 456 -188q215 0 384 124t232 327h-608l76 118h676q-27 -297 -244 -493q-216 -195 -523 -195h-3q-309 1 -529 223t-221 541z" />
<glyph unicode="H" horiz-adv-x="1032" d="M33 881l71 120h107v465h119v-465h518v465h119v-1466h-119v881h-518v-881h-119v881h-178z" />
<glyph unicode="I" horiz-adv-x="282" d="M82 0v1466h119v-1466h-119z" />
<glyph unicode="J" horiz-adv-x="745" d="M49 113l84 82q76 -76 181 -76q105 1 176 71t71 177v1099h119v-1099q0 -151 -108 -259t-262 -108t-261 113z" />
<glyph unicode="K" horiz-adv-x="1015" d="M66 0v1466h118v-594l398 594h143l-315 -471l540 -995h-133l-481 885l-152 -228v-657h-118z" />
<glyph unicode="L" horiz-adv-x="651" d="M66 0v1466h118v-1347h402v-119h-520z" />
<glyph unicode="M" horiz-adv-x="1212" d="M66 0v1493l540 -592l541 592v-1493h-119v1188l-422 -461l-422 461v-1188h-118z" />
<glyph unicode="N" horiz-adv-x="856" d="M66 0v1493l606 -1073v1046h119v-1495l-607 1071v-1042h-118z" />
<glyph unicode="O" horiz-adv-x="1622" d="M49 735q0 319 220 541q221 221 540 221t541 -221q222 -220 223 -540q0 -320 -222 -542q-221 -222 -541 -222t-540 222t-221 541zM168 734q0 -270 185 -456q185 -188 455 -188t458 188t188 456q0 269 -188 457q-189 187 -457 187q-269 0 -455 -187t-186 -457z" />
<glyph unicode="P" horiz-adv-x="1075" d="M33 1348l71 118h398q220 0 372 -154t152 -370q0 -217 -153 -371q-152 -153 -368 -153h-3h-174v-418h-119v1348h-176zM328 537h174q170 1 288 117t118 287t-117 289t-289 118h-174v-811z" />
<glyph unicode="Q" horiz-adv-x="1622" d="M49 735q0 319 220 541q219 222 539 223q320 0 542 -222t223 -550q0 -328 -250 -559l119 -160l-96 -71l-117 157q-190 -123 -420 -123q-319 1 -539 223t-221 541zM168 734q0 -270 185 -456q185 -187 456 -188q190 0 348 103l-168 225l96 74l166 -228q203 190 203 464 t-188 462t-456 188t-456 -187q-186 -187 -186 -457z" />
<glyph unicode="R" horiz-adv-x="1056" d="M33 1348l71 118h363q217 0 371 -154q153 -153 153 -367q0 -187 -114 -330q-115 -142 -295 -183l366 -432h-157l-353 418h-110v-418h-119v1348h-176zM328 537h139q170 1 288 117q117 116 117 287t-116 289q-117 118 -289 118h-139v-811z" />
<glyph unicode="S" horiz-adv-x="980" d="M66 309l114 31q29 -112 110 -178q80 -66 200 -66t212 85t93 222q0 96 -37 161t-96 98t-197 78t-204 85q-140 86 -140 289q0 100 40 177q66 127 221 177q60 19 118 19q90 0 174 -47t141 -127l-94 -70q-92 125 -227 125q-88 0 -171 -63t-83 -191q0 -154 133 -216 q59 -28 131 -50t144 -50t132 -71q58 -43 96 -125q37 -80 37 -193v-6q0 -190 -129 -308t-294 -118q-164 1 -276 93t-148 239z" />
<glyph unicode="T" horiz-adv-x="765" d="M33 1348v118h700v-118h-291v-1348h-118v1348h-291z" />
<glyph unicode="U" horiz-adv-x="892" d="M66 354v1112h118v-1112q0 -114 76 -188t187 -74q112 0 187 75t75 187v1112h118v-1112q1 -160 -111 -270t-272 -111q-160 0 -270 110q-108 108 -108 265v6z" />
<glyph unicode="V" horiz-adv-x="1126" d="M33 1466h125l405 -1140l406 1140h125l-531 -1495z" />
<glyph unicode="W" horiz-adv-x="1595" d="M33 1466h125l381 -1126l260 764l258 -764l381 1126h125l-506 -1495l-258 764l-260 -764z" />
<glyph unicode="X" horiz-adv-x="923" d="M33 0l364 815l-291 651h130l225 -508l227 508h129l-291 -651l365 -815h-129l-301 670l-299 -670h-129z" />
<glyph unicode="Y" horiz-adv-x="874" d="M33 1466h129l276 -649l275 649h129l-346 -813v-653h-119v653z" />
<glyph unicode="Z" horiz-adv-x="815" d="M66 0l483 1348h-463v118h633l-483 -1347h514v-119h-684z" />
<glyph unicode="[" horiz-adv-x="395" d="M66 -276v1896h264v-86h-156v-1722h156v-88h-264z" />
<glyph unicode="\" horiz-adv-x="954" d="M66 1497h92l731 -1526h-92z" />
<glyph unicode="]" horiz-adv-x="395" d="M66 -188h155v1722h-155v86h264v-1896h-264v88z" />
<glyph unicode="^" horiz-adv-x="933" d="M66 924l389 522h28l385 -522h-147l-256 348l-252 -348h-147z" />
<glyph unicode="_" horiz-adv-x="1404" d="M0 -205h1405v-119h-1405v119z" />
<glyph unicode="`" horiz-adv-x="598" d="M66 1737l38 110l428 -178l-26 -76z" />
<glyph unicode="a" horiz-adv-x="1046" d="M49 440q0 194 135 330q135 135 332 135t334 -143l131 121v-883l-131 119q-141 -145 -336 -145t-330 136t-135 330zM168 438q0 -148 98 -247t246 -99t248 102q102 102 102 245q0 144 -102 246q-103 101 -247 101q-145 0 -245 -100t-100 -248z" />
<glyph unicode="b" horiz-adv-x="1159" d="M33 1348l63 118h201v-716q137 156 339 156t338 -137q136 -136 136 -330q0 -193 -136 -329t-330 -136t-335 145l-131 -119v1348h-145zM297 440q0 -144 101 -246q102 -102 248 -102t246 100q99 99 99 244q0 149 -100 250q-101 100 -245 100t-246 -101t-103 -245z" />
<glyph unicode="c" horiz-adv-x="905" d="M49 440q0 194 135 330q135 135 343 135t345 -168l-92 -73q-106 122 -258 122t-254 -100q-100 -100 -100 -248t98 -247t252 -99t254 117l96 -74q-139 -162 -344 -162q-205 1 -340 137t-135 330z" />
<glyph unicode="d" horiz-adv-x="1046" d="M49 440q0 194 135 330q135 135 338 135t340 -155v716h119v-1466l-131 119q-141 -145 -336 -145t-330 136t-135 330zM168 438q0 -148 98 -247t246 -99t248 102q102 102 102 245q0 144 -102 246q-103 101 -247 101q-145 0 -245 -100t-100 -248z" />
<glyph unicode="e" horiz-adv-x="956" d="M49 440q0 194 135 330q135 135 330 135q250 0 393 -213l-602 -530q90 -70 209 -70q207 1 307 187l103 -60q-59 -113 -171 -179t-239 -67q-195 1 -330 137t-135 330zM168 440q0 -110 57 -194l516 456q-102 84 -237 84q-136 0 -236 -100t-100 -246z" />
<glyph unicode="f" horiz-adv-x="704" d="M33 760v119h162v266q0 133 94 227q95 94 213 94t203 -63l-80 -88q-45 33 -120 33t-133 -60t-59 -143v-266h160v-119h-160v-760h-118v760h-162z" />
<glyph unicode="g" horiz-adv-x="1046" d="M49 440q0 194 135 330q135 135 332 135t334 -143l131 121v-998q0 -197 -139 -335t-336 -138q-236 1 -377 185l90 73q100 -139 287 -139q150 0 253 102t103 252v244q-139 -156 -341 -156q-202 1 -337 137t-135 330zM168 438q0 -148 98 -247t246 -99t248 102 q102 102 102 245q0 144 -102 246q-103 101 -247 101q-145 0 -245 -100t-100 -248z" />
<glyph unicode="h" horiz-adv-x="833" d="M66 0v1466h118v-649q96 88 236 88t244 -102t104 -248v-555h-119v555q-1 100 -71 166q-70 65 -165 65t-163 -69q-66 -70 -66 -162v-555h-118z" />
<glyph unicode="i" horiz-adv-x="282" d="M82 0v883h119v-883h-119zM82 1108v119h119v-119h-119z" />
<glyph unicode="j" horiz-adv-x="280" d="M-401 -487l90 75q66 -72 163 -72q96 0 162 63q66 62 66 163v1141h119v-1141q-1 -144 -101 -244t-250 -100t-249 115zM80 1108v119h119v-119h-119z" />
<glyph unicode="k" horiz-adv-x="671" d="M66 0v1466h118v-993l254 410h140l-261 -424l322 -459h-145l-310 442v-442h-118z" />
<glyph unicode="l" horiz-adv-x="282" d="M82 0v1466h119v-1466h-119z" />
<glyph unicode="m" horiz-adv-x="1384" d="M66 0v883l100 -78q102 100 244 100q180 0 284 -149q99 149 281 149h2q141 0 242 -100q100 -101 100 -242v-563h-119v563q0 98 -65 161q-66 62 -158 62t-159 -62t-66 -161v-563h-119v563q0 99 -66 161q-65 62 -157 62t-159 -62t-67 -161v-563h-118z" />
<glyph unicode="n" horiz-adv-x="833" d="M66 0v883l100 -82q104 104 250 104t248 -102q104 -102 104 -248v-555h-119v555q-1 100 -71 166q-70 65 -165 65t-163 -69q-66 -70 -66 -162v-555h-118z" />
<glyph unicode="o" horiz-adv-x="1030" d="M49 440q0 194 135 330q135 135 329 135t331 -136t137 -330q0 -193 -136 -329t-331 -136t-330 136t-135 330zM168 438q0 -148 98 -247t246 -99t248 102q102 102 102 245q0 144 -102 246q-103 101 -247 101q-145 0 -245 -100t-100 -248z" />
<glyph unicode="p" horiz-adv-x="1044" d="M66 -586v1469l129 -121q137 143 333 143t331 -136q136 -136 136 -330t-136 -330t-336 -136t-339 156v-715h-118zM184 440q0 -146 100 -248q100 -100 246 -100t246 100t100 247t-100 247t-246 100t-245 -100q-101 -100 -101 -246z" />
<glyph unicode="q" horiz-adv-x="1044" d="M49 440q0 194 135 330q135 135 332 135t334 -143l131 121v-1350h145l-63 -119h-201v715q-139 -156 -341 -156q-202 1 -337 137t-135 330zM168 440q0 -146 100 -248q100 -100 245 -100t247 102t102 245t-102 245t-246 102t-246 -100q-100 -100 -100 -246z" />
<glyph unicode="r" horiz-adv-x="559" d="M66 0v883l98 -80q102 102 246 102q67 0 116 -20l-53 -107q-25 8 -63 8q-96 0 -161 -66t-65 -159v-561h-118z" />
<glyph unicode="s" horiz-adv-x="589" d="M33 135l102 55q45 -88 144 -88q67 0 113 44t46 94q0 79 -29 119t-130 67q-37 10 -52 16q-78 25 -123 85q-45 59 -45 147t69 156q68 67 160 67h3q160 0 215 -147l-109 -43q-25 71 -102 71h-2q-49 0 -82 -32t-33 -72t9 -62q9 -23 34 -37q47 -27 92 -38q128 -33 186 -111 t58 -180t-81 -182t-195 -80h-2q-169 0 -246 151z" />
<glyph unicode="t" horiz-adv-x="499" d="M33 760v119h160v251l118 58v-309h156v-119h-156v-760h-118v760h-160z" />
<glyph unicode="u" horiz-adv-x="835" d="M66 328v555h118v-555q0 -96 69 -165t165 -69t165 69t68 165v555h119v-883l-102 82q-100 -106 -248 -106t-252 102q-102 102 -102 250z" />
<glyph unicode="v" horiz-adv-x="841" d="M33 883h129l258 -604l260 604h129l-389 -912z" />
<glyph unicode="w" horiz-adv-x="1185" d="M33 883h127l237 -588l197 512l194 -512l238 588h127l-367 -912l-192 506l-195 -506z" />
<glyph unicode="x" horiz-adv-x="780" d="M33 0l291 508l-213 375h135l145 -256l144 256h137l-213 -375l289 -508h-136l-221 391l-223 -391h-135z" />
<glyph unicode="y" horiz-adv-x="835" d="M66 328v555h118v-555q0 -98 71 -166t166 -68t163 70t67 164v555h119v-1088q0 -150 -104 -254t-254 -104h-2q-186 0 -291 153l92 70q68 -104 190 -104t186 68t64 171v271q-102 -90 -241 -90q-140 0 -242 102t-102 250z" />
<glyph unicode="z" horiz-adv-x="708" d="M66 0l376 764h-370v119h561l-379 -764h389v-119h-577z" />
<glyph unicode="{" />
<glyph unicode="|" horiz-adv-x="249" d="M66 -123v1589h118v-1589h-118z" />
<glyph unicode="}" />
<glyph unicode="~" horiz-adv-x="731" d="M66 1618v102q76 68 178 68q43 0 118 -38t121 -38q120 1 183 64v-101q-63 -63 -183 -63q-47 0 -121 38t-118 38q-106 0 -178 -70z" />
<glyph unicode="&#xa0;" />
<glyph unicode="&#xa1;" horiz-adv-x="251" d="M66 0v1223h116v-1223h-116zM66 1346v120h120v-120h-120z" />
<glyph unicode="&#xa2;" horiz-adv-x="952" d="M66 661q0 169 114 295t293 158v209h84v-207q201 -23 330 -162l-90 -69q-92 92 -240 121v-691q141 25 231 115l93 -70q-133 -133 -324 -155v-205h-84v207q-182 33 -295 159q-112 126 -112 295zM180 662q0 -120 75 -212q75 -90 218 -133v687q-141 -38 -217 -130t-76 -212z " />
<glyph unicode="&#xa3;" horiz-adv-x="829" d="M66 0v119h84q32 0 66 3q82 7 138 57q58 51 58 99t-44 150t-81 166h-221v119h157q-67 123 -107 195t-40 167q0 150 105 256q105 107 255 107t262 -109l-84 -84q-68 74 -174 74t-176 -69t-69 -175q0 -66 24 -114q23 -47 69 -127t68 -121h301v-119h-241q114 -236 114 -312 t-77 -163h311v-119h-698z" />
<glyph unicode="&#xa4;" />
<glyph unicode="&#xa5;" horiz-adv-x="940" d="M66 1466h129l276 -649l274 649h129l-339 -798h227v-109h-234v-149h234v-109h-234v-301h-118v301h-232v109h232v149h-232v109h225z" />
<glyph unicode="&#xa6;" />
<glyph unicode="&#xa7;" horiz-adv-x="669" d="M33 1052q0 120 98 192q97 72 197 73q190 0 286 -148l-114 -53q-62 88 -144 88t-136 -41t-54 -107t43 -106t105 -58q62 -19 124 -41t106 -72t44 -130t-88 -172q137 -98 137 -220q0 -121 -94 -197t-213 -76q-172 0 -273 141l115 57q61 -84 158 -84q68 0 121 42t53 110 q0 96 -80 135q-42 19 -94 31t-64 16q-84 25 -138 80t-54 139t90 174q-131 107 -131 227zM197 649q-1 -51 37 -82t90 -31t92 32q39 30 39 81t-37 84t-90 33t-92 -33t-39 -84z" />
<glyph unicode="&#xa8;" horiz-adv-x="575" d="M66 1614v137h137v-137h-137zM373 1614v137h137v-137h-137z" />
<glyph unicode="&#xa9;" horiz-adv-x="1654" d="M66 734q0 318 222 540t539 223q317 0 539 -222q222 -223 223 -541q-1 -318 -223 -540t-540 -223q-318 1 -539 223t-221 540zM184 736q0 -268 188 -457t455 -189t455 188t188 457q0 268 -187 456q-188 187 -457 187t-455 -187q-187 -187 -187 -455zM340 734q0 204 142 347 t345 144q248 0 408 -221l-94 -68q-127 170 -314 170q-153 0 -261 -108t-108 -264t108 -264t261 -108q186 0 314 170l96 -67q-164 -221 -410 -221q-203 0 -345 143t-142 347z" />
<glyph unicode="&#xaa;" />
<glyph unicode="&#xab;" horiz-adv-x="710" d="M66 455l192 323h129l-192 -323l192 -320h-129zM324 455l192 323h129l-192 -323l192 -320h-129z" />
<glyph unicode="&#xac;" />
<glyph unicode="&#xad;" horiz-adv-x="534" d="M66 387v119h403v-119h-403z" />
<glyph unicode="&#xae;" horiz-adv-x="1654" d="M66 734q0 318 222 540t539 223q317 0 540 -222q222 -223 222 -541t-222 -540q-223 -222 -541 -222t-539 222t-221 540zM164 736q0 -277 192 -472q192 -194 470 -194t472 194t193 472q0 278 -194 470t-471 193q-277 0 -470 -193q-192 -193 -192 -470zM532 1073l58 92h213 q129 0 221 -90q92 -89 92 -201q0 -217 -221 -311l211 -248h-125l-201 234h-43v-234h-96v758h-109zM737 643h66q96 0 158 65q61 64 61 154t-66 150t-153 61h-66v-430z" />
<glyph unicode="&#xaf;" horiz-adv-x="714" d="M66 1620v119h583v-119h-583z" />
<glyph unicode="&#xb0;" horiz-adv-x="444" d="M66 1309q0 65 46 111t111 46q66 0 111 -46t45 -112t-45 -111q-45 -46 -111 -46q-65 0 -111 46t-46 112zM147 1308q0 -30 22 -53q21 -23 53 -23t54 24q22 22 21 53q1 31 -21 53t-54 22t-54 -22t-21 -54z" />
<glyph unicode="&#xb1;" />
<glyph unicode="&#xb2;" horiz-adv-x="534" d="M66 754l278 471q12 20 12 53q0 34 -28 58t-68 24q-41 0 -84 -74l-98 53q74 127 190 127q84 0 142 -57t59 -123q0 -66 -25 -110l-186 -316h199v-106h-391z" />
<glyph unicode="&#xb3;" horiz-adv-x="604" d="M66 885l96 57q55 -88 131 -88q53 0 92 37t39 92t-33 94q-65 77 -213 41l137 242h-211v106h400l-146 -256q181 -69 181 -237q0 -85 -72 -155t-174 -70q-133 0 -227 137z" />
<glyph unicode="&#xb4;" horiz-adv-x="598" d="M66 1669l428 178l38 -110l-440 -144z" />
<glyph unicode="&#xb5;" />
<glyph unicode="&#xb6;" />
<glyph unicode="&#xb7;" />
<glyph unicode="&#xb8;" horiz-adv-x="565" d="M66 -352l20 92q80 -53 176 -53t96 56t-65 56q-37 0 -103 -12l84 244h80l-51 -150q29 4 43 4q66 0 110 -37t44 -102q-1 -145 -226 -145q-84 0 -208 47z" />
<glyph unicode="&#xb9;" horiz-adv-x="245" d="M66 754v712h114v-712h-114z" />
<glyph unicode="&#xba;" />
<glyph unicode="&#xbb;" horiz-adv-x="710" d="M66 135l192 320l-192 323h129l192 -323l-192 -320h-129zM324 135l192 320l-192 323h129l192 -323l-192 -320h-129z" />
<glyph unicode="&#xbc;" horiz-adv-x="1298" d="M66 0l890 1466h127l-888 -1466h-129zM66 754v712h114v-712h-114zM674 233l454 504l-2 -485h107v-105h-109v-147h-120v147h-267zM842 252h162v188z" />
<glyph unicode="&#xbd;" horiz-adv-x="1302" d="M66 0l890 1466h127l-888 -1466h-129zM66 754v712h114v-712h-114zM831 0l279 471q12 23 12 55t-26 56q-27 24 -69 24t-85 -76l-98 54q76 129 190 129q86 1 144 -57t59 -124q0 -66 -25 -110l-188 -316h199v-106h-392z" />
<glyph unicode="&#xbe;" horiz-adv-x="1406" d="M66 885l96 57q55 -88 131 -88q53 0 92 37t39 92t-33 94q-65 77 -213 41l137 242h-211v106h400l-146 -256q181 -69 181 -237q0 -85 -72 -155t-174 -70q-133 0 -227 137zM203 0l889 1466h129l-889 -1466h-129zM782 233l455 504l-4 -485h108v-105h-108v-147h-121v147h-266z M948 252h164v188z" />
<glyph unicode="&#xbf;" horiz-adv-x="854" d="M66 370q0 148 87 254t226 126v473h119v-586h-56q-110 0 -184 -75q-74 -74 -74 -186t74 -185t168 -73t158 42t96 112l108 -45q-43 -103 -138 -165t-208 -62q-156 0 -266 111t-110 259zM377 1346v120h121v-120h-121z" />
<glyph unicode="&#xc0;" horiz-adv-x="1013" d="M49 414l72 118h80v582q1 158 113 270t270 113q158 0 270 -113t111 -270v-1114h-119v414h-527v-414h-118v414h-152zM319 532h527v582q0 113 -75 189q-75 75 -185 75t-189 -78q-78 -78 -78 -186v-582zM350 1737l39 110l428 -178l-26 -76z" />
<glyph unicode="&#xc1;" horiz-adv-x="1013" d="M33 414l71 118h80v582q0 158 113 270t271 113q158 0 269 -113q112 -113 111 -270v-1114h-119v414h-526v-414h-119v414h-151zM303 532h526v582q0 113 -74 189q-75 75 -186 75t-189 -78t-77 -186v-582zM334 1669l428 178l39 -110l-441 -144z" />
<glyph unicode="&#xc2;" horiz-adv-x="1013" d="M33 414l71 118h80v582q0 158 113 270t271 113q158 0 269 -113q112 -113 111 -270v-1114h-119v414h-526v-414h-119v414h-151zM303 532h526v582q0 113 -74 189q-75 75 -186 75t-189 -78t-77 -186v-582zM326 1589v113l241 141l236 -141v-115l-236 144z" />
<glyph unicode="&#xc3;" horiz-adv-x="1013" d="M33 414l71 118h80v582q0 158 113 270t271 113q158 0 269 -113q112 -113 111 -270v-1114h-119v414h-526v-414h-119v414h-151zM264 1618v102q76 68 178 68q43 0 118 -38t122 -38q119 1 182 64v-101q-63 -63 -182 -63q-47 0 -122 38t-118 38q-106 0 -178 -70zM303 532h526 v582q0 113 -74 189q-75 75 -186 75t-189 -78t-77 -186v-582z" />
<glyph unicode="&#xc4;" horiz-adv-x="1013" d="M33 414l71 118h80v582q0 158 113 270t271 113q158 0 269 -113q112 -113 111 -270v-1114h-119v414h-526v-414h-119v414h-151zM303 532h526v582q0 113 -74 189q-75 75 -186 75t-189 -78t-77 -186v-582zM344 1614v137h137v-137h-137zM651 1614v137h137v-137h-137z" />
<glyph unicode="&#xc5;" horiz-adv-x="1013" d="M33 414l71 118h80v582q0 158 113 270t271 113q158 0 269 -113q112 -113 111 -270v-1114h-119v414h-526v-414h-119v414h-151zM303 532h526v582q0 113 -74 189q-75 75 -186 75t-189 -78t-77 -186v-582zM408 1762q0 66 46 111q46 46 111 46q66 0 111 -46t45 -112 q0 -65 -45 -111t-111 -46q-65 0 -111 46t-46 112zM489 1761q0 -31 22 -53q21 -22 53 -22t54 22t21 54q1 30 -21 52t-54 21q-32 1 -54 -21t-21 -53z" />
<glyph unicode="&#xc6;" horiz-adv-x="1470" d="M66 414l75 118h84v551q0 158 118 271t286 112h776v-118h-582v-816h369v-118h-369v-295h582v-119h-711v414h-342v-414h-127v414h-159zM352 532h342v816h-65q-123 0 -200 -81t-77 -184v-551z" />
<glyph unicode="&#xc7;" horiz-adv-x="1476" d="M49 735q0 319 220 541t540 221q186 0 348 -82t268 -231l-94 -68q-195 262 -522 262q-269 0 -455 -187t-186 -457t185 -456q185 -187 456 -188q330 0 522 264l96 -69q-106 -150 -269 -232t-349 -82l-31 -90q29 4 43 4q66 0 110 -37t44 -102q0 -145 -225 -145 q-84 0 -209 47l20 92q80 -53 176 -53t97 57q0 55 -66 55q-37 0 -102 -12l64 188q-268 24 -461 219q-220 222 -220 541z" />
<glyph unicode="&#xc8;" horiz-adv-x="950" d="M33 881l71 118h107v467h674v-118h-555v-349h352v-118h-352v-762h555v-119h-674v881h-178zM350 1737l39 110l428 -178l-26 -76z" />
<glyph unicode="&#xc9;" horiz-adv-x="950" d="M33 881l71 118h107v467h674v-118h-555v-349h352v-118h-352v-762h555v-119h-674v881h-178zM350 1669l428 178l39 -110l-440 -144z" />
<glyph unicode="&#xca;" horiz-adv-x="950" d="M33 881l71 118h107v467h674v-118h-555v-349h352v-118h-352v-762h555v-119h-674v881h-178zM346 1589v113l242 141l235 -141v-115l-235 144z" />
<glyph unicode="&#xcb;" horiz-adv-x="950" d="M33 881l71 118h107v467h674v-118h-555v-349h352v-118h-352v-762h555v-119h-674v881h-178zM358 1614v137h138v-137h-138zM666 1614v137h137v-137h-137z" />
<glyph unicode="&#xcc;" horiz-adv-x="249" d="M-152 1737l39 110l428 -178l-26 -76zM82 0v1466h119v-1466h-119z" />
<glyph unicode="&#xcd;" horiz-adv-x="249" d="M-66 1669l428 178l39 -110l-440 -144zM82 0v1466h119v-1466h-119z" />
<glyph unicode="&#xce;" horiz-adv-x="249" d="M-115 1589v113l242 141l235 -141v-115l-235 144zM82 0v1466h119v-1466h-119z" />
<glyph unicode="&#xcf;" horiz-adv-x="249" d="M-98 1614v137h137v-137h-137zM82 0v1466h119v-1466h-119zM209 1614v137h137v-137h-137z" />
<glyph unicode="&#xd0;" horiz-adv-x="1218" d="M63 668v118h179v562h-176l71 118h283q305 0 519 -214t214 -519t-214 -519t-519 -214h-178v668h-179zM360 119h60q258 0 436 178t178 435t-179 436t-435 180h-60v-562h181v-118h-181v-549z" />
<glyph unicode="&#xd1;" horiz-adv-x="856" d="M66 0v1493l606 -1073v1046h119v-1495l-607 1071v-1042h-118zM127 1618v102q76 68 178 68q43 0 118 -38t122 -38q119 1 182 64v-101q-63 -63 -182 -63q-47 0 -122 38t-118 38q-106 0 -178 -70z" />
<glyph unicode="&#xd2;" horiz-adv-x="1622" d="M49 735q0 319 220 541q221 221 540 221t541 -221q222 -220 223 -540q0 -320 -222 -542q-221 -222 -541 -222t-540 222t-221 541zM168 734q0 -270 185 -456q185 -188 455 -188t458 188t188 456q0 269 -188 457q-189 187 -457 187q-269 0 -455 -187t-186 -457zM598 1737 l39 110l428 -178l-27 -76z" />
<glyph unicode="&#xd3;" horiz-adv-x="1622" d="M49 735q0 319 220 541q221 221 540 221t541 -221q222 -220 223 -540q0 -320 -222 -542q-221 -222 -541 -222t-540 222t-221 541zM168 734q0 -270 185 -456q185 -188 455 -188t458 188t188 456q0 269 -188 457q-189 187 -457 187q-269 0 -455 -187t-186 -457zM592 1669 l428 178l39 -110l-441 -144z" />
<glyph unicode="&#xd4;" horiz-adv-x="1622" d="M49 735q0 319 220 541q221 221 540 221t541 -221q222 -220 223 -540q0 -320 -222 -542q-221 -222 -541 -222t-540 222t-221 541zM168 734q0 -270 185 -456q185 -188 455 -188t458 188t188 456q0 269 -188 457q-189 187 -457 187q-269 0 -455 -187t-186 -457zM588 1589 v113l241 141l236 -141v-115l-236 144z" />
<glyph unicode="&#xd5;" horiz-adv-x="1622" d="M49 735q0 319 220 541q221 221 540 221t541 -221q222 -220 223 -540q0 -320 -222 -542q-221 -222 -541 -222t-540 222t-221 541zM168 734q0 -270 185 -456q185 -188 455 -188t458 188t188 456q0 269 -188 457q-189 187 -457 187q-269 0 -455 -187t-186 -457zM535 1618 v102q78 68 178 68q43 0 118 -38t121 -38q120 1 183 64v-101q-63 -63 -183 -63q-48 0 -122 38t-117 38q-106 0 -178 -70z" />
<glyph unicode="&#xd6;" horiz-adv-x="1622" d="M49 735q0 319 220 541q221 221 540 221t541 -221q222 -220 223 -540q0 -320 -222 -542q-221 -222 -541 -222t-540 222t-221 541zM168 734q0 -270 185 -456q185 -188 455 -188t458 188t188 456q0 269 -188 457q-189 187 -457 187q-269 0 -455 -187t-186 -457zM604 1614 v137h137v-137h-137zM911 1614v137h138v-137h-138z" />
<glyph unicode="&#xd7;" horiz-adv-x="960" d="M66 397l329 332l-329 330l84 84l331 -330l330 330l84 -84l-330 -330l330 -332l-84 -84l-330 332l-331 -332z" />
<glyph unicode="&#xd8;" horiz-adv-x="1622" d="M49 735q0 319 220 541t540 221q190 0 348 -80l31 51h129l-68 -108q156 -113 240 -274t84 -351q0 -319 -222 -541t-542 -223q-194 0 -350 82l-33 -51h-129l68 111q-315 233 -316 622zM168 735q0 -325 260 -520l666 1100q-129 63 -285 63q-269 0 -455 -187t-186 -456z M520 156q131 -66 289 -66q269 0 457 188t188 457q0 323 -266 522z" />
<glyph unicode="&#xd9;" horiz-adv-x="892" d="M66 354v1112h118v-1112q0 -114 76 -188t187 -74q112 0 187 75t75 187v1112h118v-1112q1 -160 -111 -270t-272 -111q-160 0 -270 110t-108 271zM213 1737l39 110l428 -178l-27 -76z" />
<glyph unicode="&#xda;" horiz-adv-x="892" d="M66 354v1112h118v-1112q0 -114 76 -188t187 -74q112 0 187 75t75 187v1112h118v-1112q1 -160 -111 -270t-272 -111q-160 0 -270 110t-108 271zM217 1669l428 178l39 -110l-440 -144z" />
<glyph unicode="&#xdb;" horiz-adv-x="892" d="M66 354v1112h118v-1112q0 -114 76 -188t187 -74q112 0 187 75t75 187v1112h118v-1112q1 -160 -111 -270t-272 -111q-160 0 -270 110t-108 271zM209 1589v113l242 141l235 -141v-115l-235 144z" />
<glyph unicode="&#xdc;" horiz-adv-x="892" d="M66 354v1112h118v-1112q0 -114 76 -188t187 -74q112 0 187 75t75 187v1112h118v-1112q1 -160 -111 -270t-272 -111q-160 0 -270 110t-108 271zM225 1614v137h137v-137h-137zM532 1614v137h138v-137h-138z" />
<glyph unicode="&#xdd;" horiz-adv-x="874" d="M33 1466h129l276 -649l275 649h129l-346 -813v-653h-119v653zM242 1669l428 178l39 -110l-441 -144z" />
<glyph unicode="&#xde;" horiz-adv-x="901" d="M66 0v1466h118v-274h187q190 0 327 -136q138 -136 138 -329t-138 -330t-327 -137h-187v-260h-118zM184 375h187q145 0 247 103q102 102 102 248t-102 248t-247 103h-187v-702z" />
<glyph unicode="&#xdf;" horiz-adv-x="997" d="M66 0v1237q0 94 67 162q68 68 164 67h184q125 0 216 -84t91 -210t-124 -234q268 -170 268 -438q0 -212 -157 -356t-374 -144h-55v115h55q164 1 285 111t121 274t-120 274t-286 109h-55v114h135q74 -1 128 51q55 52 55 127t-54 125t-129 52h-182q-45 0 -77 -33t-32 -78 l3 -1241h-127z" />
<glyph unicode="&#xe0;" horiz-adv-x="1046" d="M49 440q0 194 135 330q135 135 332 135t334 -143l131 121v-883l-131 119q-141 -145 -336 -145t-330 136t-135 330zM168 438q0 -148 98 -247t246 -99t248 102q102 102 102 245q0 144 -102 246q-103 101 -247 101q-145 0 -245 -100t-100 -248zM285 1147l39 110l428 -178 l-27 -75z" />
<glyph unicode="&#xe1;" horiz-adv-x="1046" d="M49 440q0 194 135 330q135 135 332 135t334 -143l131 121v-883l-131 119q-141 -145 -336 -145t-330 136t-135 330zM168 438q0 -148 98 -247t246 -99t248 102q102 102 102 245q0 144 -102 246q-103 101 -247 101q-145 0 -245 -100t-100 -248zM283 1079l428 178l39 -110 l-441 -143z" />
<glyph unicode="&#xe2;" horiz-adv-x="1046" d="M49 440q0 194 135 330q135 135 332 135t334 -143l131 121v-883l-131 119q-141 -145 -336 -145t-330 136t-135 330zM168 438q0 -148 98 -247t246 -99t248 102q102 102 102 245q0 144 -102 246q-103 101 -247 101q-145 0 -245 -100t-100 -248zM293 1006v112l242 142 l235 -142v-114l-235 143z" />
<glyph unicode="&#xe3;" horiz-adv-x="1046" d="M49 440q0 194 135 330q135 135 332 135t334 -143l131 121v-883l-131 119q-141 -145 -336 -145t-330 136t-135 330zM168 438q0 -148 98 -247t246 -99t248 102q102 102 102 245q0 144 -102 246q-103 101 -247 101q-145 0 -245 -100t-100 -248zM238 1030v103q76 68 178 67 q43 0 118 -38t121 -38q120 1 183 64v-101q-63 -63 -183 -63q-47 0 -121 38t-118 38q-106 0 -178 -70z" />
<glyph unicode="&#xe4;" horiz-adv-x="1046" d="M49 440q0 194 135 330q135 135 332 135t334 -143l131 121v-883l-131 119q-141 -145 -336 -145t-330 136t-135 330zM168 438q0 -148 98 -247t246 -99t248 102q102 102 102 245q0 144 -102 246q-103 101 -247 101q-145 0 -245 -100t-100 -248zM305 1032v137h137v-137h-137z M612 1032v137h138v-137h-138z" />
<glyph unicode="&#xe5;" horiz-adv-x="1046" d="M49 440q0 194 135 330q135 135 332 135t334 -143l131 121v-883l-131 119q-141 -145 -336 -145t-330 136t-135 330zM168 438q0 -148 98 -247t246 -99t248 102q102 102 102 245q0 144 -102 246q-103 101 -247 101q-145 0 -245 -100t-100 -248zM373 1176q-1 66 45 112 t112 45q66 0 111 -46q45 -45 45 -111t-45 -112t-111 -46t-112 46t-45 112zM454 1176q0 -30 22 -54q22 -22 54 -22t53 22q22 22 21 54q0 31 -21 52q-22 21 -54 21q-31 1 -53 -21t-22 -52z" />
<glyph unicode="&#xe6;" horiz-adv-x="1683" d="M49 284q0 124 117 216t290 92t328 -121v86q0 80 -74 156t-241 75q-78 0 -138 -26t-136 -96l-91 75q162 164 367 164q248 0 358 -139l31 -53q168 193 381 192q240 0 393 -213l-602 -532q113 -68 209 -68q193 0 307 187l103 -60q-145 -246 -425 -246q-142 0 -313 131v-104 h-116v90q-80 -61 -155 -89t-183 -28q-172 -1 -291 93t-119 218zM172 283q0 -79 81 -135t209 -56t209 55t81 137t-81 137q-81 56 -210 56t-209 -57t-80 -137zM895 440q0 -84 55 -194l520 456q-118 84 -246 84t-228 -98t-101 -248z" />
<glyph unicode="&#xe7;" horiz-adv-x="921" d="M49 440q0 194 135 330q135 135 343 135t345 -168l-92 -73q-106 122 -258 122t-254 -100q-100 -100 -100 -248t98 -247t252 -99t254 117l96 -74q-130 -151 -326 -161l-32 -93q29 4 43 4q66 0 110 -37t44 -102q-1 -145 -226 -145q-84 0 -209 47l21 92q80 -53 176 -53t96 56 t-65 56q-37 0 -103 -12l65 189q-161 16 -287 143t-126 321z" />
<glyph unicode="&#xe8;" horiz-adv-x="956" d="M49 440q0 194 135 330q135 135 330 135q250 0 393 -213l-602 -530q90 -70 209 -70q207 1 307 187l103 -60q-59 -113 -171 -179t-239 -67q-195 1 -330 137t-135 330zM168 440q0 -110 57 -194l516 456q-102 84 -237 84q-136 0 -236 -100t-100 -246zM299 1147l39 110 l428 -178l-27 -75z" />
<glyph unicode="&#xe9;" horiz-adv-x="956" d="M49 440q0 194 135 330q135 135 330 135q250 0 393 -213l-602 -530q90 -70 209 -70q207 1 307 187l103 -60q-59 -113 -171 -179t-239 -67q-195 1 -330 137t-135 330zM168 440q0 -110 57 -194l516 456q-102 84 -237 84q-136 0 -236 -100t-100 -246zM266 1079l428 178 l39 -110l-440 -143z" />
<glyph unicode="&#xea;" horiz-adv-x="956" d="M49 440q0 194 135 330q135 135 330 135q250 0 393 -213l-602 -530q90 -70 209 -70q207 1 307 187l103 -60q-59 -113 -171 -179t-239 -67q-195 1 -330 137t-135 330zM168 440q0 -110 57 -194l516 456q-102 84 -237 84q-136 0 -236 -100t-100 -246zM287 1006v112l241 142 l236 -142v-114l-236 143z" />
<glyph unicode="&#xeb;" horiz-adv-x="972" d="M49 440q0 194 135 330q135 135 330 135q250 0 393 -213l-602 -530q90 -70 209 -70q207 1 307 187l103 -60q-59 -113 -171 -179t-239 -67q-195 1 -330 137t-135 330zM168 440q0 -110 57 -194l516 456q-102 84 -237 84q-136 0 -236 -100t-100 -246zM305 1032v137h137v-137 h-137zM612 1032v137h138v-137h-138z" />
<glyph unicode="&#xec;" horiz-adv-x="251" d="M-164 1147l39 110l428 -178l-27 -75zM68 0v883h118v-883h-118z" />
<glyph unicode="&#xed;" horiz-adv-x="251" d="M-55 1079l428 178l39 -110l-441 -143zM68 0v883h118v-883h-118z" />
<glyph unicode="&#xee;" horiz-adv-x="251" d="M-115 1006v112l242 142l235 -142v-114l-235 143zM68 0v883h118v-883h-118z" />
<glyph unicode="&#xef;" horiz-adv-x="251" d="M-94 1032v137h137v-137h-137zM68 0v883h118v-883h-118zM213 1032v137h137v-137h-137z" />
<glyph unicode="&#xf0;" horiz-adv-x="1060" d="M49 428q0 186 136 320t329 133q154 0 317 -121v2q-76 197 -182 319h-260l-72 88h261q-86 80 -164 144l164 -2q86 -68 155 -142h187l75 -88h-184q98 -141 137 -276t39 -295v-508l-135 119q-156 -147 -344 -147t-323 134q-136 134 -136 320zM166 432q0 -144 99 -244 t247 -100t250 99q102 100 102 240q0 141 -103 241t-249 100t-246 -96t-100 -240z" />
<glyph unicode="&#xf1;" horiz-adv-x="833" d="M66 0v883l100 -82q104 104 250 104t248 -102q104 -102 104 -248v-555h-119v555q-1 100 -71 166q-70 65 -165 65t-163 -69q-66 -70 -66 -162v-555h-118zM117 1030v103q78 68 178 67q43 0 118 -38t122 -38q119 1 182 64v-101q-63 -63 -182 -63q-47 0 -122 38t-118 38 q-106 0 -178 -70z" />
<glyph unicode="&#xf2;" horiz-adv-x="1030" d="M49 440q0 194 135 330q135 135 329 135t331 -136t137 -330q0 -193 -136 -329t-331 -136t-330 136t-135 330zM168 438q0 -148 98 -247t246 -99t248 102q102 102 102 245q0 144 -102 246q-103 101 -247 101q-145 0 -245 -100t-100 -248zM295 1147l39 110l428 -178l-27 -75z " />
<glyph unicode="&#xf3;" horiz-adv-x="1030" d="M49 440q0 194 135 330q135 135 329 135t331 -136t137 -330q0 -193 -136 -329t-331 -136t-330 136t-135 330zM168 438q0 -148 98 -247t246 -99t248 102q102 102 102 245q0 144 -102 246q-103 101 -247 101q-145 0 -245 -100t-100 -248zM297 1079l428 178l39 -110 l-440 -143z" />
<glyph unicode="&#xf4;" horiz-adv-x="1030" d="M49 440q0 194 135 330q135 135 329 135t331 -136t137 -330q0 -193 -136 -329t-331 -136t-330 136t-135 330zM168 438q0 -148 98 -247t246 -99t248 102q102 102 102 245q0 144 -102 246q-103 101 -247 101q-145 0 -245 -100t-100 -248zM293 1006v112l242 142l235 -142 v-114l-235 143z" />
<glyph unicode="&#xf5;" horiz-adv-x="1030" d="M49 440q0 194 135 330q135 135 329 135t331 -136t137 -330q0 -193 -136 -329t-331 -136t-330 136t-135 330zM168 438q0 -148 98 -247t246 -99t248 102q102 102 102 245q0 144 -102 246q-103 101 -247 101q-145 0 -245 -100t-100 -248zM231 1030v103q76 68 179 67 q44 0 118 -38t121 -38q119 1 182 64v-101q-63 -63 -182 -63q-47 0 -122 38t-117 38q-106 0 -179 -70z" />
<glyph unicode="&#xf6;" horiz-adv-x="1030" d="M49 440q0 194 135 330q135 135 329 135t331 -136t137 -330q0 -193 -136 -329t-331 -136t-330 136t-135 330zM168 438q0 -148 98 -247t246 -99t248 102q102 102 102 245q0 144 -102 246q-103 101 -247 101q-145 0 -245 -100t-100 -248zM307 1032v137h137v-137h-137z M614 1032v137h138v-137h-138z" />
<glyph unicode="&#xf7;" horiz-adv-x="856" d="M66 674v119h725v-119h-725zM369 444v119h118v-119h-118zM369 909v119h118v-119h-118z" />
<glyph unicode="&#xf8;" horiz-adv-x="1030" d="M49 427q0 208 135 343t330 135q96 0 186 -37l19 31h129l-53 -88q186 -141 186 -371q0 -194 -136 -330t-331 -137q-105 0 -201 43l-8 -14h-129l45 74q-172 143 -172 351zM168 432q0 -154 115 -256l354 588q-53 23 -123 22q-146 0 -246 -100t-100 -254zM375 119 q66 -27 139 -27q144 0 246 102t102 252q0 152 -129 263z" />
<glyph unicode="&#xf9;" horiz-adv-x="835" d="M66 328v555h118v-555q0 -96 69 -165t165 -69t165 69t68 165v555h119v-883l-102 82q-100 -106 -248 -106t-252 102q-102 102 -102 250zM186 1147l39 110l428 -178l-26 -75z" />
<glyph unicode="&#xfa;" horiz-adv-x="835" d="M66 328v555h118v-555q0 -96 69 -165t165 -69t165 69t68 165v555h119v-883l-102 82q-100 -106 -248 -106t-252 102q-102 102 -102 250zM186 1079l428 178l39 -110l-440 -143z" />
<glyph unicode="&#xfb;" horiz-adv-x="835" d="M66 328v555h118v-555q0 -96 69 -165t165 -69t165 69t68 165v555h119v-883l-102 82q-100 -106 -248 -106t-252 102q-102 102 -102 250zM180 1006v112l242 142l235 -142v-114l-235 143z" />
<glyph unicode="&#xfc;" horiz-adv-x="835" d="M66 328v555h118v-555q0 -96 69 -165t165 -69t165 69t68 165v555h119v-883l-102 82q-100 -106 -248 -106t-252 102q-102 102 -102 250zM197 1032v137h137v-137h-137zM504 1032v137h137v-137h-137z" />
<glyph unicode="&#xfd;" horiz-adv-x="835" d="M66 328v555h118v-555q0 -98 71 -166t166 -68t163 70t67 164v555h119v-1088q0 -150 -104 -254t-254 -104q-187 -1 -293 153l92 70q68 -104 190 -104t186 68t64 171v271q-102 -90 -241 -90q-140 0 -242 102t-102 250zM190 1079l428 178l39 -110l-440 -143z" />
<glyph unicode="&#xfe;" />
<glyph unicode="&#xff;" horiz-adv-x="835" d="M66 328v555h118v-555q0 -98 71 -166t166 -68t163 70t67 164v555h119v-1088q0 -150 -104 -254t-254 -104q-187 -1 -293 153l92 70q68 -104 190 -104t186 68t64 171v271q-102 -90 -241 -90q-140 0 -242 102t-102 250zM197 1032v137h137v-137h-137zM504 1032v137h137v-137 h-137z" />
<glyph unicode="&#x152;" horiz-adv-x="2154" d="M66 735q0 319 220 541t539 221q358 0 590 -278v247h674v-118h-555v-349h352v-118h-352v-762h555v-119h-674v250q-229 -279 -590 -279q-319 1 -539 223t-220 541zM184 734q0 -270 186 -456q186 -187 455 -188q193 0 353 102t237 279v528q-78 174 -237 277 q-160 102 -353 102q-268 0 -454 -187q-187 -187 -187 -457z" />
<glyph unicode="&#x153;" horiz-adv-x="1785" d="M49 440q0 194 135 330q135 135 330 135q127 0 235 -62t173 -173q63 111 171 173t234 62q250 0 393 -213l-602 -530q90 -70 209 -70q207 1 307 187l103 -60q-59 -113 -171 -179t-240 -67q-128 1 -234 63t-170 173q-66 -111 -174 -173t-234 -63q-195 1 -330 137t-135 330z M168 438q0 -148 98 -247t246 -99t248 102q102 102 102 245q0 144 -102 246q-103 101 -247 101q-145 0 -245 -100t-100 -248zM981 440q0 -110 57 -194l516 456q-102 84 -237 84t-235 -100t-101 -246z" />
<glyph unicode="&#x178;" horiz-adv-x="874" d="M33 1466h129l276 -649l275 649h129l-346 -813v-653h-119v653zM250 1614v137h137v-137h-137zM557 1614v137h137v-137h-137z" />
<glyph unicode="&#x2c6;" horiz-adv-x="604" d="M63 1589v113l242 141l236 -141v-115l-236 144z" />
<glyph unicode="&#x2dc;" horiz-adv-x="731" d="M66 1620v143q82 57 204 58q37 0 103 -36t86 -36q102 0 207 76v-142q-72 -55 -207 -55q-35 0 -97 35t-92 35q-94 0 -204 -78z" />
<glyph unicode="&#x2000;" horiz-adv-x="959" />
<glyph unicode="&#x2001;" horiz-adv-x="1919" />
<glyph unicode="&#x2002;" horiz-adv-x="959" />
<glyph unicode="&#x2003;" horiz-adv-x="1919" />
<glyph unicode="&#x2004;" horiz-adv-x="639" />
<glyph unicode="&#x2005;" horiz-adv-x="479" />
<glyph unicode="&#x2006;" horiz-adv-x="319" />
<glyph unicode="&#x2007;" horiz-adv-x="319" />
<glyph unicode="&#x2008;" horiz-adv-x="239" />
<glyph unicode="&#x2009;" horiz-adv-x="383" />
<glyph unicode="&#x200a;" horiz-adv-x="106" />
<glyph unicode="&#x2010;" horiz-adv-x="534" d="M66 381v119h403v-119h-403z" />
<glyph unicode="&#x2011;" horiz-adv-x="534" d="M66 381v119h403v-119h-403z" />
<glyph unicode="&#x2012;" horiz-adv-x="534" d="M66 381v119h403v-119h-403z" />
<glyph unicode="&#x2013;" horiz-adv-x="735" d="M66 381v119h604v-119h-604z" />
<glyph unicode="&#x2014;" horiz-adv-x="1153" d="M66 381v119h1021v-119h-1021z" />
<glyph unicode="&#x2018;" horiz-adv-x="251" d="M66 1346v120h51l69 113v-233h-120z" />
<glyph unicode="&#x2019;" horiz-adv-x="251" d="M66 1376v121h120v-233l-69 112h-51z" />
<glyph unicode="&#x201a;" />
<glyph unicode="&#x201c;" horiz-adv-x="419" d="M66 1346v120h51l69 113v-233h-120zM233 1346v120h52l69 113v-233h-121z" />
<glyph unicode="&#x201d;" horiz-adv-x="419" d="M66 1376v121h120v-233l-69 112h-51zM233 1376v121h121v-233l-69 112h-52z" />
<glyph unicode="&#x201e;" />
<glyph unicode="&#x2022;" horiz-adv-x="473" d="M66 860q0 72 50 122t121 50t121 -51t50 -121t-50 -121t-121 -51t-121 50t-50 122z" />
<glyph unicode="&#x2026;" horiz-adv-x="757" d="M66 0v119h118v-119h-118zM319 0v119h119v-119h-119zM573 0v119h119v-119h-119z" />
<glyph unicode="&#x202f;" horiz-adv-x="383" />
<glyph unicode="&#x2039;" horiz-adv-x="460" d="M66 455l192 323h137l-194 -323l194 -320h-137z" />
<glyph unicode="&#x203a;" horiz-adv-x="460" d="M66 135l194 324l-194 319h137l192 -319l-192 -324h-137z" />
<glyph unicode="&#x205f;" horiz-adv-x="479" />
<glyph unicode="&#x20ac;" horiz-adv-x="1107" d="M66 535l24 98h103q-6 96 0 192h-127l24 99h109q53 549 440 549q307 0 399 -347l-114 -28q-68 256 -268 256q-104 0 -166 -37q-141 -83 -173 -393h336l-20 -99h-322q-6 -96 0 -192h277l-23 -98h-248q45 -451 313 -451t296 262l116 -12q-16 -176 -124 -273 q-109 -96 -287 -96q-113 0 -196 51q-83 52 -130 140q-88 166 -106 379h-133z" />
<glyph unicode="&#x2122;" horiz-adv-x="1128" d="M66 1370v96h362v-96h-131v-563h-100v563h-131zM528 807v678l269 -273l266 273v-678h-100v434l-166 -168l-166 168v-434h-103z" />
<glyph unicode="&#x25fc;" horiz-adv-x="885" d="M0 0v885h885v-885h-885z" />
<glyph unicode="&#xfb01;" horiz-adv-x="770" d="M33 760v119h162v266q0 133 94 227q93 94 211 94t205 -63l-80 -88q-45 33 -119 33t-133 -60t-60 -143v-266l383 4v-883h-118v760h-265v-760h-118v760h-162z" />
<glyph unicode="&#xfb02;" horiz-adv-x="772" d="M33 760v119h162v266q0 133 94 227t227 94h191v-1466h-119v1348h-72q-86 0 -144 -60t-59 -143v-266h160v-119h-160v-760h-118v760h-162z" />
<glyph unicode="&#xfb03;" />
<glyph unicode="&#xfb04;" />
</font>
</defs>
</svg>
